<svg width="48" height="48" viewBox="0 0 48 48" fill="none" xmlns="http://www.w3.org/2000/svg">
<rect width="48" height="48" rx="24" fill="#60CDF7"/>
<g clip-path="url(#clip0_139_968)">
<path d="M21.9767 28C21.8975 28.5562 21.6202 29.0652 21.1959 29.4333C20.7715 29.8015 20.2286 30.0042 19.6667 30.0042C19.1049 30.0042 18.562 29.8015 18.1376 29.4333C17.7133 29.0652 17.436 28.5562 17.3567 28H16.6667V20C16.6667 19.8232 16.737 19.6537 16.862 19.5286C16.987 19.4036 17.1566 19.3334 17.3334 19.3334H26.6667C26.8436 19.3334 27.0131 19.4036 27.1382 19.5286C27.2632 19.6537 27.3334 19.8232 27.3334 20V21.3334H29.3334L31.3334 24.0374V28H29.9767C29.8975 28.5562 29.6202 29.0652 29.1959 29.4333C28.7715 29.8015 28.2286 30.0042 27.6667 30.0042C27.1049 30.0042 26.562 29.8015 26.1376 29.4333C25.7133 29.0652 25.436 28.5562 25.3567 28H21.9767ZM26.0001 20.6667H18.0001V26.0334C18.2631 25.7648 18.5871 25.5638 18.9446 25.4475C19.302 25.3311 19.6823 25.3028 20.053 25.365C20.4237 25.4272 20.7739 25.578 21.0738 25.8046C21.3737 26.0313 21.6144 26.327 21.7754 26.6667H25.5581C25.6701 26.4314 25.8201 26.2174 26.0001 26.0334V20.6667ZM27.3334 24.6667H30.0001V24.4767L28.6614 22.6667H27.3334V24.6667ZM27.6667 28.6667C27.9321 28.6667 28.1865 28.5613 28.3741 28.3737C28.5617 28.1861 28.6671 27.9317 28.6671 27.6664C28.6671 27.4011 28.5617 27.1466 28.3741 26.959C28.1865 26.7714 27.9321 26.666 27.6667 26.666C27.4014 26.666 27.147 26.7714 26.9594 26.959C26.7718 27.1466 26.6664 27.4011 26.6664 27.6664C26.6664 27.9317 26.7718 28.1861 26.9594 28.3737C27.147 28.5613 27.4014 28.6667 27.6667 28.6667ZM20.6667 27.6667C20.6667 27.5354 20.6409 27.4053 20.5906 27.284C20.5404 27.1627 20.4667 27.0525 20.3739 26.9596C20.281 26.8667 20.1708 26.7931 20.0494 26.7428C19.9281 26.6926 19.7981 26.6667 19.6667 26.6667C19.5354 26.6667 19.4054 26.6926 19.2841 26.7428C19.1627 26.7931 19.0525 26.8667 18.9596 26.9596C18.8668 27.0525 18.7931 27.1627 18.7429 27.284C18.6926 27.4053 18.6667 27.5354 18.6667 27.6667C18.6667 27.9319 18.7721 28.1863 18.9596 28.3738C19.1472 28.5613 19.4015 28.6667 19.6667 28.6667C19.932 28.6667 20.1863 28.5613 20.3739 28.3738C20.5614 28.1863 20.6667 27.9319 20.6667 27.6667Z" fill="white"/>
</g>
<defs>
<clipPath id="clip0_139_968">
<rect width="16" height="16" fill="white" transform="translate(16 16)"/>
</clipPath>
</defs>
</svg>
