<svg width="16" height="12" viewBox="0 0 16 12" fill="none" xmlns="http://www.w3.org/2000/svg">
<path d="M0.787476 6C1.41414 2.58667 4.40548 0 8.00014 0C11.5948 0 14.5855 2.58667 15.2128 6C14.5861 9.41333 11.5948 12 8.00014 12C4.40548 12 1.41481 9.41333 0.787476 6ZM8.00014 9.33333C8.8842 9.33333 9.73204 8.98214 10.3572 8.35702C10.9823 7.7319 11.3335 6.88406 11.3335 6C11.3335 5.11595 10.9823 4.2681 10.3572 3.64298C9.73204 3.01786 8.8842 2.66667 8.00014 2.66667C7.11609 2.66667 6.26824 3.01786 5.64312 3.64298C5.018 4.2681 4.66681 5.11595 4.66681 6C4.66681 6.88406 5.018 7.7319 5.64312 8.35702C6.26824 8.98214 7.11609 9.33333 8.00014 9.33333ZM8.00014 8C7.46971 8 6.961 7.78929 6.58593 7.41421C6.21086 7.03914 6.00014 6.53043 6.00014 6C6.00014 5.46957 6.21086 4.96086 6.58593 4.58579C6.961 4.21071 7.46971 4 8.00014 4C8.53058 4 9.03928 4.21071 9.41436 4.58579C9.78943 4.96086 10.0001 5.46957 10.0001 6C10.0001 6.53043 9.78943 7.03914 9.41436 7.41421C9.03928 7.78929 8.53058 8 8.00014 8Z" fill="black"/>
</svg>
