<svg width="80" height="80" viewBox="0 0 80 80" fill="none" xmlns="http://www.w3.org/2000/svg">
<g clip-path="url(#clip0_138_331)">
<path d="M26.6667 66.6668V46.6667H53.3333V66.6668H63.3333V13.3334H16.6667V66.6668H26.6667ZM33.3333 66.6668H46.6667V53.3334H33.3333V66.6668ZM70 66.6668H76.6667V73.3334H3.33333V66.6668H10V10.0001C10 9.11603 10.3512 8.26818 10.9763 7.64306C11.6014 7.01794 12.4493 6.66675 13.3333 6.66675H66.6667C67.5507 6.66675 68.3986 7.01794 69.0237 7.64306C69.6488 8.26818 70 9.11603 70 10.0001V66.6668ZM36.6667 26.6667V20.0001H43.3333V26.6667H50V33.3334H43.3333V40.0001H36.6667V33.3334H30V26.6667H36.6667Z" fill="#00AFF2"/>
</g>
<defs>
<clipPath id="clip0_138_331">
<rect width="80" height="80" fill="white"/>
</clipPath>
</defs>
</svg>
