<svg width="40" height="40" viewBox="0 0 40 40" fill="none" xmlns="http://www.w3.org/2000/svg">
<path d="M40 15.4839C40 14.0586 38.8446 12.9032 37.4194 12.9032H27.0968V2.58065C27.0968 1.15539 25.9414 0 24.5161 0H15.4839C14.0586 0 12.9032 1.15539 12.9032 2.58065V12.9032H2.58065C1.15539 12.9032 0 14.0586 0 15.4839V19.3548H7.5122L8.70968 21.9893L11.8944 14.9828L15.2186 21.329L18.4006 5.99793L19.6771 6.10909L20.4214 30.1729L22.024 19.3548H24.7907L27.5554 14.6154L30.2138 21.9258L32.2706 19.3548H40V15.4839Z" fill="#00AFF2"/>
<path d="M0 24.5161C0 25.9414 1.15539 27.0968 2.58065 27.0968H12.9032V37.4194C12.9032 38.8446 14.0586 40 15.4839 40H24.5161C25.9414 40 27.0968 38.8446 27.0968 37.4194V27.0968H37.4194C38.8446 27.0968 40 25.9414 40 24.5161V20.6452H32.8907L29.7862 24.5258L27.2833 17.6427L25.5319 20.6452H23.1373L20.6382 37.5139L19.3551 37.4393L18.556 11.5987L15.7491 25.1226L11.9765 17.9204L8.70968 25.1075L6.68135 20.6452H0V24.5161Z" fill="#1E3C50"/>
</svg>
