<svg width="85" height="14" viewBox="0 0 85 14" fill="none" xmlns="http://www.w3.org/2000/svg">
<path d="M0.881348 13.6744V3.7507H3.96786L3.55763 6.23163H3.88972C4.16321 5.33302 4.61902 4.65581 5.25716 4.2C5.8953 3.73116 6.72228 3.49674 7.73809 3.49674C8.31112 3.49674 8.81902 3.57488 9.26181 3.73116C9.71763 3.87442 10.1018 4.07628 10.4144 4.33674C10.74 4.59721 11.0004 4.90326 11.1958 5.25488C11.3911 5.59349 11.5213 5.95163 11.5865 6.3293H11.86C12.42 4.44093 13.7353 3.49674 15.806 3.49674C17.0953 3.49674 18.1176 3.89395 18.873 4.68837C19.6283 5.46977 20.006 6.58977 20.006 8.04837V13.6744H16.9195V8.75163C16.9195 7.89209 16.6981 7.23442 16.2553 6.77861C15.8125 6.32279 15.2134 6.09488 14.4581 6.09488C13.7027 6.09488 13.0972 6.32279 12.6413 6.77861C12.1986 7.23442 11.9772 7.89209 11.9772 8.75163V13.6744H8.91019V8.75163C8.91019 7.89209 8.68228 7.23442 8.22646 6.77861C7.78367 6.32279 7.1846 6.09488 6.42926 6.09488C5.67391 6.09488 5.07484 6.32279 4.63205 6.77861C4.18925 7.23442 3.96786 7.89209 3.96786 8.75163V13.6744H0.881348ZM26.7729 13.9284C25.9524 13.9284 25.2492 13.8502 24.6631 13.694C24.0901 13.5507 23.6213 13.3488 23.2566 13.0884C22.892 12.8149 22.625 12.4958 22.4557 12.1312C22.2864 11.7535 22.2017 11.3498 22.2017 10.92C22.2017 10.4902 22.2864 10.0995 22.4557 9.74791C22.625 9.38326 22.892 9.0707 23.2566 8.81023C23.6213 8.53675 24.0901 8.32837 24.6631 8.18512C25.2492 8.02884 25.9524 7.9507 26.7729 7.9507C27.398 7.9507 27.958 7.98326 28.4529 8.04837C28.9478 8.11349 29.3906 8.20465 29.7813 8.32186C30.172 8.42605 30.5301 8.54977 30.8557 8.69302C31.1813 8.83628 31.4938 8.98605 31.7934 9.14233V8.41954C31.7934 7.67721 31.5068 7.06512 30.9338 6.58326C30.3738 6.08837 29.5013 5.84093 28.3161 5.84093C27.7692 5.84093 27.3003 5.88651 26.9096 5.97768C26.5189 6.06884 26.1868 6.19256 25.9134 6.34884C25.6529 6.50512 25.4445 6.68093 25.2882 6.87628C25.145 7.07163 25.0408 7.27349 24.9757 7.48186H21.9087C21.9738 6.94791 22.1431 6.44 22.4166 5.95814C22.6901 5.47628 23.0873 5.05302 23.6082 4.68837C24.1292 4.32372 24.7803 4.03721 25.5617 3.82884C26.3561 3.60744 27.2873 3.49674 28.3552 3.49674C29.4492 3.49674 30.3999 3.62047 31.2073 3.86791C32.0278 4.11535 32.6985 4.46047 33.2194 4.90326C33.7534 5.34605 34.1506 5.88 34.411 6.50512C34.6715 7.11721 34.8017 7.79442 34.8017 8.53674V10.6465C34.8017 11.1414 35.0361 11.3888 35.505 11.3888C35.7003 11.3888 35.8827 11.3628 36.052 11.3107V13.7135C35.8306 13.7786 35.6092 13.8307 35.3878 13.8698C35.1794 13.9088 34.945 13.9284 34.6845 13.9284C33.8641 13.9284 33.252 13.746 32.8482 13.3814C32.4575 13.0167 32.2622 12.5544 32.2622 11.9944V11.9163H31.9301V11.9749C31.9301 12.1963 31.8259 12.4242 31.6175 12.6586C31.4222 12.893 31.1161 13.1079 30.6994 13.3033C30.2827 13.4856 29.7487 13.6353 29.0975 13.7526C28.4464 13.8698 27.6715 13.9284 26.7729 13.9284ZM27.9254 11.8381C28.785 11.8381 29.5208 11.76 30.1329 11.6037C30.745 11.4474 31.2985 11.2586 31.7934 11.0372V10.4902C31.2594 10.2819 30.6929 10.106 30.0938 9.96279C29.4947 9.80651 28.772 9.72837 27.9254 9.72837C27.3915 9.72837 26.9552 9.75442 26.6166 9.80651C26.278 9.85861 26.011 9.93674 25.8157 10.0409C25.6334 10.1321 25.5031 10.2428 25.425 10.373C25.3599 10.5033 25.3273 10.64 25.3273 10.7833C25.3273 10.9395 25.3599 11.0828 25.425 11.213C25.5031 11.3302 25.6334 11.4409 25.8157 11.5451C26.011 11.6363 26.278 11.7079 26.6166 11.76C26.9552 11.8121 27.3915 11.8381 27.9254 11.8381ZM43.3674 13.9284C42.3777 13.9284 41.5181 13.8307 40.7888 13.6353C40.0726 13.427 39.4865 13.1535 39.0307 12.8149C38.5749 12.4633 38.2363 12.053 38.0149 11.5842C37.7935 11.1153 37.6828 10.6074 37.6828 10.0605C37.6828 9.56558 37.7609 9.12279 37.9172 8.73209C38.0865 8.32837 38.3079 7.97674 38.5814 7.67721C38.8679 7.37768 39.187 7.13023 39.5386 6.93488C39.9033 6.73954 40.2809 6.6093 40.6716 6.54419V6.23163H36.5302V4.00465H39.1088C39.5126 4.00465 39.7991 3.92 39.9684 3.7507C40.1377 3.5814 40.2223 3.29488 40.2223 2.89116V1.40651H42.7423V3.90698H48.3684V6.23163H42.2149C41.7461 6.45302 41.3684 6.77209 41.0819 7.18884C40.7954 7.59256 40.6521 8.14605 40.6521 8.8493C40.6521 9.66977 40.8735 10.2949 41.3163 10.7247C41.7591 11.1414 42.4428 11.3498 43.3674 11.3498C44.3312 11.3498 45.0279 11.1609 45.4577 10.7833C45.9005 10.4056 46.1219 9.9107 46.1219 9.2986V9.06419H49.1888V9.35721C49.1888 10.0474 49.0716 10.6726 48.8372 11.2326C48.6158 11.7926 48.2642 12.2744 47.7823 12.6781C47.3135 13.0819 46.7079 13.3944 45.9656 13.6158C45.2363 13.8242 44.3702 13.9284 43.3674 13.9284ZM57.0371 13.9284C55.9432 13.9284 54.973 13.7916 54.1264 13.5181C53.293 13.2447 52.5897 12.8735 52.0167 12.4047C51.4567 11.9228 51.0269 11.3693 50.7274 10.7442C50.4409 10.106 50.2976 9.42884 50.2976 8.71256C50.2976 7.99628 50.4409 7.32558 50.7274 6.70047C51.0269 6.06233 51.4567 5.50884 52.0167 5.04C52.5897 4.55814 53.293 4.18047 54.1264 3.90698C54.973 3.63349 55.9432 3.49674 57.0371 3.49674C58.0269 3.49674 58.919 3.60744 59.7134 3.82884C60.5078 4.05023 61.1916 4.36279 61.7646 4.76651C62.3376 5.17023 62.7934 5.64558 63.132 6.19256C63.4706 6.72651 63.679 7.31907 63.7571 7.97023H60.6706C60.6185 7.70977 60.5013 7.45581 60.319 7.20837C60.1497 6.96093 59.9153 6.74605 59.6157 6.56372C59.3162 6.36837 58.9516 6.21861 58.5218 6.11442C58.092 5.99721 57.5971 5.93861 57.0371 5.93861C56.4381 5.93861 55.9106 6.01674 55.4548 6.17302C54.999 6.31628 54.6148 6.51814 54.3023 6.77861C53.9897 7.02605 53.7553 7.31907 53.599 7.65768C53.4427 7.98326 53.3646 8.33488 53.3646 8.71256C53.3646 9.09023 53.4427 9.44837 53.599 9.78698C53.7553 10.1256 53.9897 10.4251 54.3023 10.6856C54.6148 10.933 54.999 11.1349 55.4548 11.2912C55.9106 11.4344 56.4381 11.506 57.0371 11.506C57.5971 11.506 58.092 11.4474 58.5218 11.3302C58.9516 11.213 59.3162 11.0633 59.6157 10.8809C59.9153 10.6856 60.1497 10.4707 60.319 10.2363C60.5013 9.98884 60.6185 9.73488 60.6706 9.47442H63.7571C63.679 10.1126 63.4706 10.7051 63.132 11.2521C62.7934 11.7991 62.3376 12.2744 61.7646 12.6781C61.1916 13.0688 60.5078 13.3749 59.7134 13.5963C58.919 13.8177 58.0269 13.9284 57.0371 13.9284ZM65.7456 13.6744V0H68.8321V3.18419C68.8321 3.84837 68.7866 4.46698 68.6954 5.04C68.6042 5.61302 68.4935 6.17954 68.3633 6.73954H68.6954C68.9819 5.72372 69.5159 4.9293 70.2973 4.35628C71.0917 3.78326 72.1401 3.49674 73.4424 3.49674C74.2889 3.49674 75.0442 3.62047 75.7084 3.86791C76.3726 4.11535 76.9391 4.48 77.408 4.96186C77.8768 5.4307 78.2349 6.01023 78.4824 6.70047C78.7298 7.37768 78.8535 8.14605 78.8535 9.00558V13.6744H75.7866V9.70884C75.7866 8.53675 75.4805 7.64465 74.8684 7.03256C74.2694 6.40744 73.4163 6.09488 72.3094 6.09488C71.2024 6.09488 70.3428 6.40744 69.7307 7.03256C69.1317 7.64465 68.8321 8.53675 68.8321 9.70884V13.6744H65.7456ZM82.578 13.9284C82.0311 13.9284 81.5883 13.7721 81.2497 13.4595C80.9241 13.134 80.7613 12.7237 80.7613 12.2288C80.7613 11.734 80.9241 11.3302 81.2497 11.0177C81.5883 10.6921 82.0311 10.5293 82.578 10.5293C83.125 10.5293 83.5678 10.6921 83.9064 11.0177C84.245 11.3302 84.4143 11.734 84.4143 12.2288C84.4143 12.7237 84.245 13.134 83.9064 13.4595C83.5678 13.7721 83.125 13.9284 82.578 13.9284Z" fill="#1B1B1B"/>
</svg>
